<svg id="Layer_1" data-name="Layer 1" xmlns="http://www.w3.org/2000/svg" width="36" height="36" viewBox="0 0 36 36"><defs><style>.cls-1,.cls-2{fill:none;stroke-linecap:round;stroke-linejoin:round;stroke-width:1.5px;}.cls-1{stroke:#0a213b;}.cls-2{stroke:#843e1d;}</style></defs><path class="cls-1" d="M12.1,17.3a4.5,4.5,0,0,0,.7-2.3,3.7,3.7,0,0,0-3.7-3.7,3.7,3.7,0,0,0-2.9,6H1v6.6a3.7,3.7,0,0,1,3-1.5,3.8,3.8,0,0,1,3.7,3.7A3.7,3.7,0,0,1,1,28.3V35H18.7V17.3Z"/><polyline class="cls-1" points="16 29.3 16 32.2 13 32.2"/><path class="cls-2" d="M21,33.5,22.4,35l4.5-4.4a3.7,3.7,0,0,1-3.7-3.7,3.6,3.6,0,0,1,3.7-3.7,3.7,3.7,0,0,1,3.7,3.7L35,22.4,30.6,18a3.8,3.8,0,0,0,3.7-3.7,3.7,3.7,0,0,0-3.7-3.7,3.6,3.6,0,0,0-3.7,3.7L22.4,9.9,17.3,15"/><polyline class="cls-2" points="21 15 22.4 13.6 23.9 15"/><line class="cls-1" x1="6.9" y1="1" x2="6.9" y2="2.5"/><line class="cls-1" x1="6.9" y1="5.4" x2="6.9" y2="6.9"/><line class="cls-1" x1="9.9" y1="3.9" x2="8.4" y2="3.9"/><line class="cls-1" x1="5.4" y1="3.9" x2="4" y2="3.9"/><line class="cls-2" x1="31.3" y1="6.2" x2="28.3" y2="6.2"/><line class="cls-2" x1="29.8" y1="7.6" x2="29.8" y2="4.7"/><line class="cls-2" x1="16.5" y1="9.1" x2="13.6" y2="9.1"/><line class="cls-2" x1="15" y1="10.6" x2="15" y2="7.6"/></svg>